<?xml version="1.0" encoding="utf-8"?>
<!-- Generator: Adobe Illustrator 15.1.0, SVG Export Plug-In . SVG Version: 6.00 Build 0)  -->
<!DOCTYPE svg PUBLIC "-//W3C//DTD SVG 1.1//EN" "http://www.w3.org/Graphics/SVG/1.1/DTD/svg11.dtd">
<svg version="1.1" xmlns="http://www.w3.org/2000/svg" xmlns:xlink="http://www.w3.org/1999/xlink" x="0px" y="0px" width="180px"
	 height="180px" viewBox="0 0 180 180" enable-background="new 0 0 180 180" xml:space="preserve">
<symbol  id="body" viewBox="30.4 -55.216 55.7 55.17">
	<g id="图层_1_5_">
		<g>
			<path fill-rule="evenodd" clip-rule="evenodd" fill="#FFFFFF" d="M71.9-44.65c-1.137,5.628,1.764,5.811,8.699,0.55
				c0.634-1.733,2.134-3.149,4.5-4.25c0.2-0.033,0.533-0.384,1-1.05v-1.301c-0.232-0.266-0.633-0.516-1.199-0.75
				c-0.566-0.299-2.851-0.016-6.851,0.851C74.98-49.955,72.93-47.972,71.9-44.65z M58.25-15.201
				c-1.579,8.25-3.962,12.991-7.15,14.226c2.357,0.657,4.74,0.966,7.15,0.925c1.892,0.032,3.767-0.152,5.625-0.55
				C60.923-2.462,59.048-7.329,58.25-15.201z M45.675-50.725c5.732,1.749,7.715,0.958,5.95-2.375
				c-2.691-1.464-4.216-2.113-4.575-1.95c-0.167-0.033-0.333-0.066-0.5-0.1c-1.933-0.233-2.833,0.15-2.7,1.15
				c0.133,1.066,0.3,1.683,0.5,1.85C44.846-51.708,45.288-51.232,45.675-50.725z M70.425-50.125
				c0.468-0.741,1.043-1.416,1.726-2.025c0.199-0.167,0.366-0.783,0.5-1.85c0.133-1-0.768-1.384-2.7-1.15
				c-0.167,0.033-0.333,0.066-0.5,0.1c-0.36-0.164-1.894,0.494-4.601,1.975C62.58-49.97,64.438-48.987,70.425-50.125z M35.9-44.1
				c5.75,3.221,8.85,3.945,9.3,2.175c0.186-0.773-0.097-1.923-0.85-3.449c-1.092-2.887-3.059-4.629-5.9-5.226
				c-4-0.866-6.284-1.149-6.85-0.851c-0.567,0.234-0.967,0.484-1.2,0.75v1.301c0.467,0.666,0.8,1.017,1,1.05
				C33.767-47.25,35.267-45.833,35.9-44.1z"/>
			<path fill-rule="evenodd" clip-rule="evenodd" fill="#D28D5A" d="M71.9-44.65c-0.306,0.969-0.522,2.052-0.65,3.25v16.55
				c0.1,0.2,0.05,1.317-0.15,3.351c-0.1,1.333-0.482,2.516-1.149,3.549c-0.366,0.567-0.8,1.101-1.3,1.601
				c-0.033,0.033-0.066,0.067-0.101,0.101C69.794-6.424,71.943-2.941,75-5.8c1.132-1.103,2.064-2.536,2.8-4.3
				c0.733-1.767,1.284-3.851,1.65-6.25c0.134-0.967,0.233-2,0.3-3.101V-41.15c-0.053-0.105,0.23-1.088,0.85-2.95
				C73.664-38.839,70.764-39.022,71.9-44.65z M45.2-41.925c-0.451,1.771-3.55,1.046-9.3-2.175c0.629,1.842,0.913,2.825,0.85,2.95
				v21.699c0.067,1.101,0.167,2.134,0.3,3.101c0.367,2.399,0.917,4.483,1.65,6.25c0.735,1.765,1.668,3.198,2.8,4.3
				c2.265,2.009,4.415-1.474,6.45-10.45c-0.034-0.033-0.067-0.067-0.1-0.101c-0.5-0.5-0.934-1.033-1.3-1.601
				c-0.667-1.033-1.05-2.216-1.15-3.549c-0.2-2.033-0.25-3.15-0.15-3.351V-41.4C45.231-41.576,45.214-41.751,45.2-41.925z"/>
			<path fill-rule="evenodd" clip-rule="evenodd" fill="#E39962" d="M75-5.8c-3.057,2.859-5.206-0.625-6.45-10.45v-26.951
				c-0.066-0.199,0.116-1.383,0.55-3.549c0.035-0.188,0.186-0.722,0.45-1.601c-0.05,0,0.083-0.317,0.4-0.95
				c0.144-0.287,0.302-0.562,0.475-0.824c-5.987,1.138-7.845,0.154-5.575-2.951C64.798-53.051,64.748-53.027,64.7-53
				c-1.493,0.817-2.677,2.168-3.55,4.049c-0.754,1.661-1.271,3.729-1.551,6.201L59.4-15.201h-1.15
				C59.048-7.329,60.923-2.462,63.875-0.6c2.045-0.441,4.07-1.141,6.075-2.1c0.966-0.433,1.917-0.933,2.85-1.5
				C73.602-4.619,74.335-5.153,75-5.8z M58.25-15.201H57.1L56.9-42.75c-0.245-2.162-0.67-4.013-1.275-5.551
				c-0.672-1.676-1.564-2.977-2.675-3.9c-0.358-0.309-0.741-0.575-1.15-0.799c-0.057-0.031-0.115-0.064-0.175-0.101
				c1.765,3.333-0.218,4.124-5.95,2.375c0.333,0.45,0.625,0.925,0.875,1.425c0.536,1.532,0.819,2.383,0.85,2.551
				c0.434,2.166,0.617,3.35,0.55,3.549v26.951C45.915-7.274,43.765-3.791,41.5-5.8c0.665,0.647,1.398,1.181,2.2,1.6
				c0.933,0.567,1.883,1.067,2.85,1.5c1.505,0.72,3.021,1.295,4.55,1.725C54.288-2.209,56.671-6.951,58.25-15.201z"/>
			<g>
				<path fill-rule="evenodd" clip-rule="evenodd" fill-opacity="0.0706" d="M43.7-4.2c0.933,0.567,1.883,1.067,2.85,1.5
					c3.833,1.833,7.733,2.717,11.7,2.65c3.967,0.066,7.867-0.817,11.7-2.65c0.966-0.433,1.917-0.933,2.85-1.5
					c0.802-0.419,1.535-0.953,2.2-1.6c-10.514-4.374-21.681-4.374-33.5,0C42.165-5.153,42.898-4.619,43.7-4.2z"/>
			</g>
		</g>
	</g>
</symbol>
<symbol  id="head" viewBox="0 -88.244 179.35 88.244">
	<g id="图层_1_2_">
		<path fill-rule="evenodd" clip-rule="evenodd" fill="#E39B66" d="M108.85-86.4l-0.1,0.6c-0.842,0.332-1.659,0.673-2.45,1.025
			c-5.689,2.537-9.839,5.528-12.45,8.975c-2.848-3.674-5.631-3.674-8.35,0c-3.492-3.483-7.108-6.242-10.85-8.275
			c-1.302-0.715-2.619-1.34-3.95-1.875l-0.075-0.4c-0.746,0.13-1.479,0.264-2.2,0.4c-0.331,0.068-0.656,0.135-0.975,0.2
			c-9.329,1.93-16.487,5.155-21.475,9.675c-2.509,2.278-4.467,4.886-5.875,7.825l-0.35,0.65c-0.533,1.033-1,2.117-1.4,3.25
			l-0.25,0.7c-1.867,5.433-2.783,11.617-2.75,18.55c0.2,9.2,3.133,16.733,8.8,22.6c-0.633,1.133-1.167,3.667-1.6,7.6
			c-0.466,3.933,0.367,8.833,2.5,14.7c-0.033,0.333,1.817,0.25,5.55-0.25c3.733-0.466,9.6-3.283,17.6-8.45
			c6.867,1.833,13.917,2.75,21.15,2.75c6.566,0,12.95-0.767,19.15-2.3c7.733,4.934,13.417,7.617,17.05,8.05
			c3.633,0.433,5.434,0.5,5.4,0.2c1.833-4.933,2.7-9.2,2.6-12.8c-0.133-3.6-0.517-6.267-1.15-8c2.425-2.335,4.4-4.96,5.925-7.875
			c0.67-1.281,1.253-2.614,1.75-4c1.193-3.353,1.885-7.028,2.075-11.025c0.024-0.396,0.041-0.795,0.05-1.2
			c0.01-0.727,0.01-1.444,0-2.15c-0.046-6.101-0.696-11.584-1.95-16.45l-0.2-0.7c-0.333-1.1-0.7-2.167-1.1-3.2l-0.3-0.65
			c-2.133-5.133-5.917-9.283-11.35-12.45c-1.491-0.869-3.157-1.66-5-2.375c-3.133-1.205-6.775-2.18-10.925-2.925
			C110.554-86.145,109.713-86.278,108.85-86.4z M75.3-87v-0.075c-0.033,0.011-0.066,0.02-0.1,0.025
			C75.237-87.033,75.271-87.017,75.3-87z"/>
		<path fill-rule="evenodd" clip-rule="evenodd" fill="#FFFFFF" d="M75.3-87c-0.273,0.032-0.548,0.065-0.825,0.1
			c-0.122,0.016-0.247,0.033-0.375,0.05c-1.187,0.155-2.346,0.321-3.475,0.5l0.075,0.4c1.331,0.535,2.647,1.16,3.95,1.875
			c3.742,2.034,7.358,4.792,10.85,8.275c2.719-3.674,5.502-3.674,8.35,0c2.61-3.447,6.76-6.438,12.45-8.975
			c0.792-0.352,1.608-0.693,2.45-1.025l0.1-0.6c-1.091-0.167-2.216-0.316-3.375-0.45c-0.147-0.017-0.297-0.034-0.45-0.05
			c-0.304-0.035-0.612-0.068-0.925-0.1c0.033-0.017,0.066-0.033,0.1-0.05c-9.568-1.583-19.201-1.592-28.9-0.025V-87z"/>
		<g>
			<path fill-rule="evenodd" clip-rule="evenodd" fill="#000101" d="M179.35-66.3l-0.15-0.65c-7.534,1.4-14.767,2.25-21.7,2.55
				c-6.933,0.267-12.75,0.267-17.45,0l0.2,0.7c4.733,0.233,10.55,0.217,17.45-0.05C164.6-64.017,171.817-64.867,179.35-66.3z
				 M179.05-73.25l-0.2-0.65c-7.8,2.1-15.3,3.55-22.5,4.35c-7.2,0.8-13.1,1.233-17.7,1.3l0.3,0.65c4.633-0.066,10.533-0.5,17.7-1.3
				C163.817-69.7,171.283-71.15,179.05-73.25z M22.55-69.6c-7.066-0.8-14.417-2.233-22.05-4.3l-0.2,0.65
				c7.567,2.033,14.867,3.467,21.9,4.3c7.033,0.8,12.883,1.25,17.55,1.35l0.35-0.65C35.467-68.35,29.617-68.8,22.55-69.6z
				 M21.15-64.45c-6.733-0.3-13.733-1.133-21-2.5L0-66.3c7.233,1.367,14.2,2.2,20.9,2.5c6.733,0.3,12.467,0.35,17.2,0.15l0.25-0.7
				C33.617-64.117,27.883-64.15,21.15-64.45z"/>
		</g>
		<g>
			<path fill-rule="evenodd" clip-rule="evenodd" fill-opacity="0.4078" d="M83.9-41.3c-0.367-0.233-0.717-0.133-1.05,0.3
				c-0.3,0.767-0.583,1.533-0.85,2.3c-4.067,10.3-8.667,20.133-13.8,29.5c6.867,2,13.917,3,21.15,3c6.566,0,12.95-0.833,19.15-2.5
				c-4.667-8.9-8.25-18.9-10.75-30c-0.133-0.633-0.267-1.267-0.4-1.9c-0.667-1-0.95-1.1-0.85-0.3c-0.067,0.733-0.117,1.467-0.15,2.2
				c-0.6,8.167-0.467,16.367,0.4,24.6c-2.133-7-3.333-15.2-3.6-24.6c-0.033-0.966-0.05-1.95-0.05-2.95c-0.3-0.667-0.567-0.7-0.8-0.1
				c-0.2,1-0.383,2.017-0.55,3.05c-1.367,8.167-2.55,16.6-3.55,25.3c0.4-8.767,0.483-17.2,0.25-25.3c-0.034-1.1-0.067-2.2-0.1-3.3
				c-0.333-0.3-0.65-0.283-0.95,0.05c-0.267,1.1-0.533,2.184-0.8,3.25c-2.233,8.333-5.083,16.767-8.55,25.3
				c3.067-9.967,4.95-18.4,5.65-25.3C83.767-39.6,83.833-40.467,83.9-41.3z"/>
		</g>
		<g>
			<path fill-rule="evenodd" clip-rule="evenodd" fill-opacity="0.1098" d="M35.5-41.6c6.7-7.8,16.133-15.117,28.3-21.95
				c-12.775,2.894-21.758,4.343-26.95,4.35l-0.6,2.875c6.375-0.519,15.559-2.927,27.55-7.225c-12.8,4.9-22.283,10-28.45,15.3
				L35.5-41.6z"/>
		</g>
		<g>
			<path fill-rule="evenodd" clip-rule="evenodd" fill-opacity="0.1059" d="M141.6-56.3l-0.5-3.1
				c-5.434,0.133-14.533-1.25-27.3-4.15C125.8-59.25,135.067-56.833,141.6-56.3z M142.1-41.6l0.15-6.65
				c-6.167-5.3-15.65-10.4-28.45-15.3C125.967-56.717,135.4-49.4,142.1-41.6z"/>
		</g>
		<g>
			<path fill-rule="evenodd" clip-rule="evenodd" fill-opacity="0.0667" d="M68.7-43.75c0.833-1.433,1.35-2.75,1.55-3.95
				c0.233-1.2,0.1-1.95-0.4-2.25c-0.5-0.3-1.25-0.066-2.25,0.7c-0.9,0.8-1.767,1.917-2.6,3.35c-0.833,1.433-1.367,2.767-1.6,4
				c-0.167,1.233,0,2,0.5,2.3c0.5,0.3,1.217,0.05,2.15-0.75C66.983-41.183,67.867-42.317,68.7-43.75z M69-38.5
				c0.1,1.233,0.45,1.917,1.05,2.05c0.567,0.167,1.2-0.25,1.9-1.25c0.7-1.033,1.267-2.35,1.7-3.95c0.434-1.6,0.6-3,0.5-4.2
				c-0.1-1.233-0.433-1.933-1-2.1c-0.6-0.133-1.25,0.3-1.95,1.3c-0.7,1-1.267,2.3-1.7,3.9S68.9-39.733,69-38.5z"/>
		</g>
		<g>
			<path fill-rule="evenodd" clip-rule="evenodd" fill-opacity="0.0667" d="M103.35-41.65c0.433,1.6,1,2.917,1.7,3.95
				c0.7,1,1.333,1.417,1.9,1.25c0.6-0.133,0.95-0.816,1.05-2.05s-0.067-2.65-0.5-4.25s-1-2.9-1.7-3.9c-0.7-1-1.35-1.434-1.95-1.3
				c-0.567,0.167-0.9,0.867-1,2.1C102.75-44.65,102.917-43.25,103.35-41.65z M108.3-43.75c0.833,1.433,1.717,2.567,2.65,3.4
				c0.933,0.8,1.65,1.05,2.15,0.75c0.5-0.3,0.667-1.066,0.5-2.3c-0.233-1.233-0.767-2.567-1.6-4c-0.833-1.434-1.7-2.55-2.6-3.35
				c-1-0.767-1.75-1-2.25-0.7c-0.5,0.3-0.633,1.05-0.4,2.25C106.95-46.5,107.467-45.183,108.3-43.75z"/>
		</g>
	</g>
</symbol>
<symbol  id="shape_1" viewBox="0 -35.25 100.7 35.25">
	<g id="Layer_1_1_">
		<path fill-rule="evenodd" clip-rule="evenodd" fill="#9DDCF2" d="M100.7-17.6c-0.367-5-5.284-9.15-14.75-12.45
			c-9.467-3.333-21.333-5.067-35.6-5.2c-14.267,0.133-26.133,1.85-35.6,5.15C5.283-26.767,0.367-22.6,0-17.6
			c0.367,4.967,5.283,9.117,14.75,12.45c9.467,3.3,21.333,5.017,35.6,5.15c14.267-0.133,26.133-1.85,35.6-5.15
			C95.417-8.483,100.333-12.633,100.7-17.6z"/>
	</g>
</symbol>
<symbol  id="shape_10" viewBox="0 -16 11.1 16">
	<g id="Layer_1_8_">
		<path fill-rule="evenodd" clip-rule="evenodd" d="M5.55-16C2.183-15.533,0.333-12.867,0-8c0.333,4.867,2.183,7.533,5.55,8
			c3.4-0.467,5.25-3.133,5.55-8C10.8-12.867,8.95-15.533,5.55-16z"/>
	</g>
</symbol>
<symbol  id="shape_11" viewBox="0 -4.15 4.15 4.15">
	<g id="Layer_1_9_">
		<path fill-rule="evenodd" clip-rule="evenodd" fill="#AE5B50" d="M4.15-2.1C4.05-3.367,3.367-4.05,2.1-4.15
			C0.833-4.05,0.133-3.367,0-2.1C0.133-0.833,0.833-0.133,2.1,0C3.367-0.133,4.05-0.833,4.15-2.1z"/>
	</g>
</symbol>
<symbol  id="shape_12" viewBox="0.018 -4.3 9.732 4.282">
	<g id="Layer_1_10_">
		<path fill-rule="evenodd" clip-rule="evenodd" fill="#AE5B50" d="M0.05-0.9c-0.1,0.4,0.034,0.683,0.4,0.85
			c0.4,0.1,0.683-0.034,0.85-0.4C1.967-2.05,3.167-2.9,4.9-3c1.7,0.1,2.883,0.95,3.55,2.55c0.167,0.367,0.45,0.5,0.85,0.4
			C9.7-0.217,9.833-0.5,9.7-0.9C8.833-3.067,7.233-4.2,4.9-4.3C2.533-4.2,0.917-3.067,0.05-0.9z"/>
	</g>
</symbol>
<symbol  id="shape_13" viewBox="-0.68 -2.493 5.38 2.229">
	<g id="Layer_1_4_">
		<path fill-rule="evenodd" clip-rule="evenodd" fill="#3E1F00" d="M0.325-2.25C-0.896-2.813-1.005-2.396,0-1
			c0.151,0.397,0.667,0.63,1.55,0.7C2.383-0.167,3.433-0.4,4.7-1C3.005-1.27,1.546-1.687,0.325-2.25z"/>
	</g>
</symbol>
<symbol  id="shape_7" viewBox="0 -24 16.7 24">
	<g id="Layer_1_5_">
		<path fill-rule="evenodd" clip-rule="evenodd" fill="#FFFFFF" d="M16.7-12c-0.067-3.4-0.883-6.233-2.45-8.5s-3.533-3.433-5.9-3.5
			c-2.367,0.067-4.333,1.233-5.9,3.5C0.883-18.233,0.067-15.4,0-12c0.067,3.4,0.883,6.233,2.45,8.5C4.017-1.267,5.983-0.1,8.35,0
			c2.367-0.1,4.333-1.267,5.9-3.5C15.817-5.767,16.633-8.6,16.7-12z"/>
	</g>
</symbol>
<symbol  id="shape_8" viewBox="0 -16 11.1 16">
	<g id="Layer_1_6_">
		<path fill-rule="evenodd" clip-rule="evenodd" d="M5.55-16C2.183-15.533,0.333-12.867,0-8c0.333,4.867,2.183,7.533,5.55,8
			c3.4-0.467,5.25-3.133,5.55-8C10.8-12.867,8.95-15.533,5.55-16z"/>
	</g>
</symbol>
<symbol  id="shape_9" viewBox="0 -24 16.7 24">
	<g id="Layer_1_7_">
		<path fill-rule="evenodd" clip-rule="evenodd" fill="#FFFFFF" d="M16.7-12c-0.067-3.4-0.883-6.233-2.45-8.5s-3.533-3.433-5.9-3.5
			c-2.367,0.067-4.333,1.233-5.9,3.5C0.883-18.233,0.067-15.4,0-12c0.067,3.4,0.883,6.233,2.45,8.5C4.017-1.267,5.983-0.1,8.35,0
			c2.367-0.1,4.333-1.267,5.9-3.5C15.817-5.767,16.633-8.6,16.7-12z"/>
	</g>
</symbol>
<symbol  id="tail" viewBox="0.004 -26.414 43.798 26.39">
	<g id="图层_1_3_">
		<g>
			<path fill-rule="evenodd" clip-rule="evenodd" fill="#914D1A" d="M27.3-15.95c2.567,0.1,4.75,0.383,6.55,0.85
				c1.333,0.367,2.45,0.817,3.35,1.35c8.966,4.933,8.8,1.017-0.5-11.75c-6.967-1.367-12.3-1.2-16,0.5c-3.7,1.7-6.233,3.65-7.6,5.85
				c-1.333,2.233-1.967,3.45-1.9,3.65c-1.833,4.2-3.633,7.083-5.4,8.65C4.033-5.283,3.083-4.533,2.95-4.6
				c-0.067,0.067-0.133,0.117-0.2,0.15C2.317-4.117,1.933-3.8,1.6-3.5c-1.767,1.567-2.067,2.533-0.9,2.9
				c1.4,0.467,2.316,0.65,2.75,0.55C6.817-0.55,9.467-1.7,11.4-3.5c0.2-0.2,0.4-0.417,0.6-0.65c1.933-2.133,2.9-3.35,2.9-3.65
				C18.633-13.433,22.767-16.15,27.3-15.95z"/>
		</g>
		
			<use xlink:href="#shape_13"  width="5.38" height="2.229" x="-0.68" y="-2.493" transform="matrix(0.7234 0 0 0.78 4.1499 -1.2998)" overflow="visible"/>
		
			<use xlink:href="#shape_13"  width="5.38" height="2.229" x="-0.68" y="-2.493" transform="matrix(0.7222 -0.0409 0.0441 0.7787 6.6499 -2.6001)" overflow="visible"/>
		
			<use xlink:href="#shape_13"  width="5.38" height="2.229" x="-0.68" y="-2.493" transform="matrix(0.7223 -0.0407 0.0439 0.7788 8.5498 -4.3501)" overflow="visible"/>
		
			<use xlink:href="#shape_13"  width="5.38" height="2.229" x="-0.68" y="-2.493" transform="matrix(0.7673 -0.0598 0.0606 0.7776 10.25 -6.6499)" overflow="visible"/>
		
			<use xlink:href="#shape_13"  width="5.38" height="2.229" x="-0.68" y="-2.493" transform="matrix(0.8004 0 0 0.78 12.1001 -9.6499)" overflow="visible"/>
		
			<use xlink:href="#shape_13"  width="5.38" height="2.229" x="-0.68" y="-2.493" transform="matrix(0.9235 0 0 0.9112 14.2002 -12.75)" overflow="visible"/>
		
			<use xlink:href="#shape_13"  width="5.38" height="2.229" x="-0.68" y="-2.493" transform="matrix(1.0217 0.0441 -0.0447 1.0353 17.3999 -15.2998)" overflow="visible"/>
		
			<use xlink:href="#shape_13"  width="5.38" height="2.229" x="-0.68" y="-2.493" transform="matrix(1.0675 0.2062 -0.2358 1.2209 22.1494 -17.1001)" overflow="visible"/>
		
			<use xlink:href="#shape_13"  width="5.38" height="2.229" x="-0.68" y="-2.493" transform="matrix(0.9995 0.4278 -0.4893 1.1431 27.2505 -18)" overflow="visible"/>
		
			<use xlink:href="#shape_13"  width="5.38" height="2.229" x="-0.68" y="-2.493" transform="matrix(0.8343 0.6972 -0.7974 0.9541 32.1499 -18.6001)" overflow="visible"/>
	</g>
</symbol>
<g id="图层_22">
	
		<use xlink:href="#shape_1"  width="100.7" height="35.25" y="-35.25" transform="matrix(1 0 0 -1 40 133.2246)" overflow="visible"/>
	<g id="shape_3">
		<g id="Layer_1_11_">
			
				<path fill-rule="evenodd" clip-rule="evenodd" fill="none" stroke="#000000" stroke-width="0.1" stroke-linecap="round" stroke-linejoin="round" stroke-miterlimit="3" stroke-opacity="0.0039" d="
				M116.301,145.225c-0.567-0.3-2.851-0.033-6.851,0.801c-3.967,0.832-6.233,3.916-6.8,9.25v16.549c0.1,0.201,0.05,1.317-0.15,3.351
				c-0.166,2.033-1.017,3.783-2.55,5.25v-20.399c-0.067-0.234,0.116-1.418,0.55-3.551c0.4-2.166,1.417-3.967,3.051-5.4
				c0.199-0.199,0.366-0.832,0.5-1.899c0.133-1.067-0.934-1.399-3.201-1c-0.366-0.2-1.949,0.467-4.75,2
				c-2.799,1.533-4.5,4.967-5.1,10.3l-0.199,20.95h-2.25l-0.2-20.95c-0.6-5.333-2.3-8.767-5.1-10.3c-2.8-1.533-4.383-2.2-4.75-2
				c-2.267-0.366-3.333-0.033-3.2,1c0.133,1.067,0.3,1.7,0.5,1.899c1.633,1.434,2.65,3.234,3.05,5.4
				c0.4,2.133,0.583,3.316,0.55,3.551v20.649c-1.533-1.366-2.383-3.134-2.55-5.3c-0.2-2.133-0.25-3.316-0.15-3.551v-16.549
				c-0.567-5.301-2.833-8.384-6.8-9.25c-4-0.834-6.283-1.101-6.85-0.801c-1.367,0.6-1.8,1.25-1.3,1.95
				c0.533,0.7,0.9,1.083,1.1,1.149c2.367,1.101,3.867,2.518,4.5,4.25c0.633,1.768,0.917,2.734,0.85,2.9v15.2l0.5,11.75
				c1.4,5.067,3.6,8.433,6.6,10.101l28.799-0.051c4.101-2.033,6.451-7.133,7.051-15.3v-21.7c-0.1-0.166,0.184-1.133,0.85-2.9
				c0.633-1.732,2.133-3.149,4.5-4.25c0.2-0.066,0.551-0.449,1.051-1.149C118.084,146.475,117.667,145.824,116.301,145.225z"/>
		</g>
	</g>
	<g id="shape_2">
		<g id="Layer_1_12_">
			<g>
				<defs>
					<path id="SVGID_1_" d="M125.95,163.274c-9.467,3.333-21.333,5.067-35.601,5.2c-14.266-0.133-26.133-1.85-35.6-5.15
						c-9.467-3.333-14.383-7.5-14.75-12.5c0.367-4.967,5.283-9.116,14.75-12.449c9.467-3.301,21.333-5.018,35.6-5.15
						c14.268,0.133,26.134,1.85,35.601,5.15c9.466,3.333,14.384,7.482,14.75,12.449C140.334,155.824,135.416,159.975,125.95,163.274
						z"/>
				</defs>
				<clipPath id="SVGID_2_">
					<use xlink:href="#SVGID_1_"  overflow="visible"/>
				</clipPath>
				<path clip-path="url(#SVGID_2_)" fill-rule="evenodd" clip-rule="evenodd" fill="#7DBAE7" d="M116.301,145.225
					c1.366,0.6,1.783,1.25,1.25,1.95c-0.5,0.7-0.851,1.083-1.051,1.149c-2.367,1.101-3.867,2.518-4.5,4.25
					c-0.666,1.768-0.949,2.734-0.85,2.9v21.7c-0.6,8.167-2.95,13.267-7.051,15.3L75.3,192.525c-3-1.668-5.2-5.033-6.6-10.101
					l-0.5-11.75v-15.2c0.066-0.166-0.217-1.133-0.85-2.9c-0.633-1.732-2.133-3.149-4.5-4.25c-0.2-0.066-0.567-0.449-1.1-1.149
					c-0.5-0.7-0.066-1.351,1.3-1.95c0.566-0.3,2.85-0.033,6.85,0.801c3.967,0.866,6.233,3.949,6.8,9.25v16.549
					c-0.1,0.234-0.05,1.418,0.15,3.551c0.167,2.166,1.017,3.934,2.55,5.3v-20.649c0.034-0.234-0.15-1.418-0.55-3.551
					c-0.4-2.166-1.417-3.967-3.05-5.4c-0.2-0.199-0.367-0.832-0.5-1.899c-0.133-1.033,0.933-1.366,3.2-1
					c0.367-0.2,1.95,0.467,4.75,2c2.8,1.533,4.5,4.967,5.1,10.3l0.2,20.95h2.25L91,160.475c0.6-5.333,2.301-8.767,5.1-10.3
					c2.801-1.533,4.384-2.2,4.75-2c2.268-0.399,3.334-0.067,3.201,1c-0.134,1.067-0.301,1.7-0.5,1.899
					c-1.634,1.434-2.65,3.234-3.051,5.4c-0.434,2.133-0.617,3.316-0.55,3.551v20.399c1.533-1.467,2.384-3.217,2.55-5.25
					c0.2-2.033,0.25-3.149,0.15-3.351v-16.549c0.566-5.334,2.833-8.418,6.8-9.25C113.45,145.191,115.733,144.925,116.301,145.225z"
					/>
			</g>
		</g>
	</g>
</g>
<g id="图层_1">
	
		<use xlink:href="#tail"  width="43.798" height="26.39" x="0.004" y="-26.414" transform="matrix(1 0 0 -1 31.5 93.7749)" overflow="visible"/>
	
		<use xlink:href="#body"  width="55.7" height="55.17" id="XMLID_1_" x="30.4" y="-55.216" transform="matrix(1 0 0 -1 31.5 93.7251)" overflow="visible"/>
	<g>
		
			<use xlink:href="#shape_13"  width="5.38" height="2.229" x="-0.68" y="-2.493" transform="matrix(1.2074 0.3235 0.2588 -0.9659 82.4502 115.1748)" overflow="visible" opacity="0.6914"/>
		
			<use xlink:href="#shape_13"  width="5.38" height="2.229" x="-0.68" y="-2.493" transform="matrix(1.2074 0.3235 0.2588 -0.9659 82.4502 119.9746)" overflow="visible" opacity="0.6914"/>
		
			<use xlink:href="#shape_13"  width="5.38" height="2.229" x="-0.68" y="-2.493" transform="matrix(1.2074 0.3235 0.2588 -0.9659 82.4502 122.9746)" overflow="visible" opacity="0.6914"/>
		
			<use xlink:href="#shape_13"  width="5.38" height="2.229" x="-0.68" y="-2.493" transform="matrix(1.2074 0.3235 0.2588 -0.9659 82.4502 125.7754)" overflow="visible" opacity="0.6914"/>
		
			<use xlink:href="#shape_13"  width="5.38" height="2.229" x="-0.68" y="-2.493" transform="matrix(1.2074 0.3235 0.2588 -0.9659 82.4502 128.9746)" overflow="visible" opacity="0.6914"/>
		
			<use xlink:href="#shape_13"  width="5.38" height="2.229" x="-0.68" y="-2.493" transform="matrix(1.2074 0.3235 0.223 -0.8323 82.3999 132.1748)" overflow="visible" opacity="0.6914"/>
		
			<use xlink:href="#shape_13"  width="5.38" height="2.229" x="-0.68" y="-2.493" transform="matrix(1.25 0 0 -0.7619 82 135.7754)" overflow="visible" opacity="0.6914"/>
		
			<use xlink:href="#shape_13"  width="5.38" height="2.229" x="-0.68" y="-2.493" transform="matrix(-1.2074 0.3235 -0.2588 -0.9659 97.3496 115.1748)" overflow="visible"/>
		
			<use xlink:href="#shape_13"  width="5.38" height="2.229" x="-0.68" y="-2.493" transform="matrix(-1.2074 0.3235 -0.2588 -0.9659 97.3496 119.9746)" overflow="visible"/>
		
			<use xlink:href="#shape_13"  width="5.38" height="2.229" x="-0.68" y="-2.493" transform="matrix(-1.2074 0.3235 -0.2588 -0.9659 97.3496 122.9746)" overflow="visible"/>
		
			<use xlink:href="#shape_13"  width="5.38" height="2.229" x="-0.68" y="-2.493" transform="matrix(-1.2074 0.3235 -0.2588 -0.9659 97.3496 125.7754)" overflow="visible"/>
		
			<use xlink:href="#shape_13"  width="5.38" height="2.229" x="-0.68" y="-2.493" transform="matrix(-1.2074 0.3235 -0.2588 -0.9659 97.3496 128.9746)" overflow="visible"/>
		
			<use xlink:href="#shape_13"  width="5.38" height="2.229" x="-0.68" y="-2.493" transform="matrix(-1.2074 0.3235 -0.223 -0.8323 97.4004 132.1748)" overflow="visible"/>
		
			<use xlink:href="#shape_13"  width="5.38" height="2.229" x="-0.68" y="-2.493" transform="matrix(-1.25 0 0 -0.7619 97.7998 135.7754)" overflow="visible"/>
		
			<use xlink:href="#shape_13"  width="5.38" height="2.229" x="-0.68" y="-2.493" transform="matrix(0.979 0.5902 0.2098 -1.0333 70.8999 106.3252)" overflow="visible"/>
		
			<use xlink:href="#shape_13"  width="5.38" height="2.229" x="-0.68" y="-2.493" transform="matrix(0.979 0.5902 0.2098 -1.0333 70.8999 111.7246)" overflow="visible"/>
		
			<use xlink:href="#shape_13"  width="5.38" height="2.229" x="-0.68" y="-2.493" transform="matrix(0.979 0.5902 0.2098 -1.0333 70.8999 115.0752)" overflow="visible"/>
		
			<use xlink:href="#shape_13"  width="5.38" height="2.229" x="-0.68" y="-2.493" transform="matrix(0.979 0.5902 0.2098 -1.0333 70.8999 118.2246)" overflow="visible"/>
		
			<use xlink:href="#shape_13"  width="5.38" height="2.229" x="-0.68" y="-2.493" transform="matrix(0.979 0.5902 0.2098 -1.0333 70.8999 121.8252)" overflow="visible"/>
		
			<use xlink:href="#shape_13"  width="5.38" height="2.229" x="-0.68" y="-2.493" transform="matrix(0.979 0.5902 0.1808 -0.8903 70.8501 125.375)" overflow="visible"/>
		
			<use xlink:href="#shape_13"  width="5.38" height="2.229" x="-0.68" y="-2.493" transform="matrix(1.0135 0.2358 0 -0.8535 70.5 129.3252)" overflow="visible"/>
		
			<use xlink:href="#shape_13"  width="5.38" height="2.229" x="-0.68" y="-2.493" transform="matrix(-0.979 0.5902 -0.2098 -1.0333 108.5 106.3252)" overflow="visible" opacity="0.6914"/>
		
			<use xlink:href="#shape_13"  width="5.38" height="2.229" x="-0.68" y="-2.493" transform="matrix(-0.979 0.5902 -0.2098 -1.0333 108.5 111.7246)" overflow="visible" opacity="0.6914"/>
		
			<use xlink:href="#shape_13"  width="5.38" height="2.229" x="-0.68" y="-2.493" transform="matrix(-0.979 0.5902 -0.2098 -1.0333 108.5 115.0752)" overflow="visible" opacity="0.6914"/>
		
			<use xlink:href="#shape_13"  width="5.38" height="2.229" x="-0.68" y="-2.493" transform="matrix(-0.979 0.5902 -0.2098 -1.0333 108.5 118.2246)" overflow="visible" opacity="0.6914"/>
		
			<use xlink:href="#shape_13"  width="5.38" height="2.229" x="-0.68" y="-2.493" transform="matrix(-0.979 0.5902 -0.2098 -1.0333 108.5 121.8252)" overflow="visible" opacity="0.6914"/>
		
			<use xlink:href="#shape_13"  width="5.38" height="2.229" x="-0.68" y="-2.493" transform="matrix(-0.979 0.5902 -0.1808 -0.8903 108.5498 125.375)" overflow="visible" opacity="0.6914"/>
		
			<use xlink:href="#shape_13"  width="5.38" height="2.229" x="-0.68" y="-2.493" transform="matrix(-1.0135 0.2358 0 -0.8535 108.9004 129.3252)" overflow="visible" opacity="0.6914"/>
	</g>
</g>
<g id="Layer_1">
	<use xlink:href="#head"  width="179.35" height="88.244" y="-88.244" transform="matrix(1 0 0 -1 0 10.875)" overflow="visible"/>
	<use xlink:href="#shape_7"  width="16.7" height="24" y="-24" transform="matrix(1 0 0 -1 59.1499 58.5752)" overflow="visible"/>
	<use xlink:href="#shape_8"  width="11.1" height="16" y="-16" transform="matrix(1 0 0 -1 62.0498 62.7251)" overflow="visible"/>
	<use xlink:href="#shape_9"  width="16.7" height="24" y="-24" transform="matrix(1 0 0 -1 103.9004 58.5752)" overflow="visible"/>
	
		<use xlink:href="#shape_10"  width="11.1" height="16" y="-16" transform="matrix(1 0 0 -1 106.7998 62.7251)" overflow="visible"/>
	
		<use xlink:href="#shape_11"  width="4.15" height="4.15" y="-4.15" transform="matrix(1 0 0 -1 87.2002 79.1748)" overflow="visible"/>
	
		<use xlink:href="#shape_12"  width="9.732" height="4.282" x="0.018" y="-4.3" transform="matrix(1 0 0 -1 84.3999 85.625)" overflow="visible"/>
</g>
</svg>
